<svg width="40" height="32" viewBox="0 0 40 32" fill="none" xmlns="http://www.w3.org/2000/svg">
<path d="M33.8617 2.65263C31.3122 1.42484 28.5783 0.520263 25.7198 0.00217332C25.6678 -0.00782564 25.6158 0.0171623 25.589 0.0671394C25.2374 0.723494 24.8479 1.57976 24.5752 2.25279C21.5007 1.76969 18.442 1.76969 15.4305 2.25279C15.1577 1.5648 14.7541 0.723494 14.401 0.0671394C14.3741 0.0188298 14.3221 -0.00615816 14.2701 0.00217332C11.4132 0.518607 8.67927 1.42318 6.12823 2.65263C6.10614 2.66262 6.08721 2.67929 6.07465 2.70093C0.888986 10.8322 -0.531584 18.7636 0.1653 26.5967C0.168453 26.635 0.18895 26.6717 0.21733 26.695C3.63868 29.3321 6.95285 30.933 10.2055 31.9942C10.2575 32.0108 10.3127 31.9909 10.3458 31.9459C11.1152 30.8431 11.8011 29.6803 12.3891 28.4575C12.4238 28.3858 12.3907 28.3009 12.3198 28.2726C11.2319 27.8394 10.196 27.3113 9.19955 26.7116C9.12073 26.6633 9.11442 26.545 9.18693 26.4884C9.39662 26.3234 9.60637 26.1518 9.80659 25.9786C9.84282 25.947 9.8933 25.9403 9.93589 25.9603C16.4821 29.0972 23.5692 29.0972 30.0383 25.9603C30.0808 25.9386 30.1313 25.9453 30.1691 25.9769C30.3694 26.1502 30.5791 26.3234 30.7904 26.4884C30.8629 26.545 30.8581 26.6633 30.7793 26.7116C29.7829 27.323 28.747 27.8394 27.6575 28.2709C27.5866 28.2992 27.555 28.3858 27.5897 28.4575C28.1904 29.6786 28.8763 30.8414 29.6315 31.9442C29.663 31.9909 29.7198 32.0108 29.7718 31.9942C33.0402 30.933 36.3544 29.3321 39.7757 26.695C39.8057 26.6717 39.8246 26.6366 39.8278 26.5983C40.6618 17.5424 38.4308 9.67608 33.9137 2.70259C33.9026 2.67929 33.8838 2.66262 33.8617 2.65263ZM13.3667 21.8272C11.3958 21.8272 9.77189 19.9281 9.77189 17.5958C9.77189 15.2635 11.3643 13.3644 13.3667 13.3644C15.3848 13.3644 16.993 15.2802 16.9615 17.5958C16.9615 19.9281 15.369 21.8272 13.3667 21.8272ZM26.6579 21.8272C24.6871 21.8272 23.0632 19.9281 23.0632 17.5958C23.0632 15.2635 24.6555 13.3644 26.6579 13.3644C28.6761 13.3644 30.2842 15.2802 30.2527 17.5958C30.2527 19.9281 28.6761 21.8272 26.6579 21.8272Z" fill="#5865F2"/>
</svg>
