<svg width="50" height="40" viewBox="0 0 50 40" fill="none" xmlns="http://www.w3.org/2000/svg">
<path d="M42.3271 3.31578C39.1403 1.78105 35.7229 0.650328 32.1498 0.00271665C32.0847 -0.00978206 32.0197 0.0214529 31.9862 0.0839242C31.5467 0.904368 31.0599 1.9747 30.7189 2.81598C26.8758 2.21211 23.0525 2.21211 19.2882 2.81598C18.9472 1.956 18.4427 0.904368 18.0012 0.0839242C17.9677 0.0235372 17.9027 -0.00769771 17.8376 0.00271665C14.2665 0.648259 10.8491 1.77898 7.66028 3.31578C7.63268 3.32827 7.60901 3.34912 7.59331 3.37617C1.11123 13.5403 -0.66448 23.4545 0.206625 33.2458C0.210567 33.2937 0.236187 33.3396 0.271663 33.3687C4.54835 36.6651 8.69106 38.6663 12.7568 39.9927C12.8219 40.0136 12.8908 39.9886 12.9323 39.9323C13.894 38.5538 14.7513 37.1003 15.4864 35.5718C15.5298 35.4823 15.4884 35.3761 15.3997 35.3407C14.0399 34.7993 12.745 34.1392 11.4994 33.3895C11.4009 33.3291 11.393 33.1812 11.4837 33.1104C11.7458 32.9043 12.008 32.6898 12.2582 32.4732C12.3035 32.4337 12.3666 32.4253 12.4199 32.4503C20.6027 36.3715 29.4616 36.3715 37.5478 32.4503C37.6011 32.4233 37.6642 32.4316 37.7114 32.4712C37.9618 32.6877 38.2239 32.9043 38.488 33.1104C38.5786 33.1812 38.5727 33.3291 38.4742 33.3895C37.2286 34.1537 35.9337 34.7993 34.5719 35.3386C34.4832 35.374 34.4438 35.4823 34.4872 35.5718C35.238 37.0982 36.0954 38.5517 37.0394 39.9303C37.0788 39.9886 37.1497 40.0136 37.2148 39.9927C41.3003 38.6663 45.443 36.6651 49.7196 33.3687C49.7571 33.3396 49.7808 33.2958 49.7847 33.2479C50.8273 21.9281 48.0385 12.0951 42.3921 3.37824C42.3783 3.34912 42.3547 3.32827 42.3271 3.31578ZM16.7084 27.2839C14.2448 27.2839 12.2149 24.9101 12.2149 21.9947C12.2149 19.0794 14.2054 16.7055 16.7084 16.7055C19.231 16.7055 21.2413 19.1002 21.2018 21.9947C21.2018 24.9101 19.2113 27.2839 16.7084 27.2839ZM33.3224 27.2839C30.8589 27.2839 28.8289 24.9101 28.8289 21.9947C28.8289 19.0794 30.8194 16.7055 33.3224 16.7055C35.8451 16.7055 37.8553 19.1002 37.8159 21.9947C37.8159 24.9101 35.8451 27.2839 33.3224 27.2839Z" fill="#5865F2"/>
</svg>
