<svg width="48" height="46" viewBox="0 0 48 46" fill="none" xmlns="http://www.w3.org/2000/svg">
<path d="M48 45.9985V28.2037C48 18.6686 42.924 14.2319 36.156 14.2319C30.6945 14.2319 28.2465 17.2444 26.883 19.3589V14.9614H16.593C16.7295 17.8745 16.593 45.9985 16.593 45.9985H26.883V28.6654C26.883 27.7405 26.949 26.8125 27.222 26.1508C27.9645 24.2964 29.658 22.3774 32.499 22.3774C36.2235 22.3774 37.7115 25.2228 37.7115 29.3948V46H48V45.9985V45.9985ZM5.7525 10.7247C9.339 10.7247 11.5755 8.33944 11.5755 5.3601C11.5095 2.31609 9.3405 0 5.8215 0C2.3025 0 0 2.31459 0 5.3601C0 8.33944 2.2335 10.7247 5.688 10.7247H5.7525ZM10.8975 45.9985V14.9614H0.609V45.9985H10.8975V45.9985Z" fill="#117EB8"/>
</svg>
