<svg width="45" height="45" viewBox="0 0 45 45" fill="none" xmlns="http://www.w3.org/2000/svg">
<path d="M42.5 0H2.5C1.11929 0 0 1.11929 0 2.5V42.5C0 43.8807 1.11929 45 2.5 45H42.5C43.8807 45 45 43.8807 45 42.5V2.5C45 1.11929 43.8807 0 42.5 0Z" fill="#117EB8"/>
<path fill-rule="evenodd" clip-rule="evenodd" d="M8.21532 17.4049H14.2297V36.7562H8.21532V17.4049V17.4049ZM11.2234 7.78554C13.1466 7.78554 14.7091 9.34804 14.7091 11.2712C14.7091 13.1962 13.1466 14.7593 11.2234 14.7593C10.76 14.7681 10.2994 14.6844 9.8687 14.5131C9.43796 14.3418 9.0457 14.0863 8.71484 13.7617C8.38398 13.437 8.12116 13.0497 7.94174 12.6223C7.76233 12.1948 7.66992 11.736 7.66992 11.2724C7.66992 10.8089 7.76233 10.35 7.94174 9.92257C8.12116 9.49516 8.38398 9.1078 8.71484 8.78314C9.0457 8.45849 9.43796 8.20305 9.8687 8.03176C10.2994 7.86047 10.76 7.77676 11.2234 7.78554V7.78554ZM18.0022 17.4043H23.7709V20.0487H23.8509C24.6541 18.5274 26.6159 16.9237 29.5416 16.9237C35.6316 16.9237 36.7566 20.9318 36.7566 26.1424V36.7562H30.7459V27.3455C30.7459 25.1018 30.7047 22.2149 27.6209 22.2149C24.4916 22.2149 24.0109 24.6593 24.0109 27.1837V36.7562H18.0016V17.4049L18.0022 17.4043Z" fill="white"/>
</svg>
