<svg width="50" height="40" viewBox="0 0 50 40" fill="none" xmlns="http://www.w3.org/2000/svg">
<path d="M44.8812 9.9579C44.9116 10.3919 44.9116 10.8258 44.9116 11.2638C44.9116 24.609 34.5927 40 15.7242 40V39.992C10.1503 40 4.69226 38.4281 0 35.4643C0.810481 35.5603 1.62503 35.6083 2.4416 35.6103C7.06074 35.6143 11.5478 34.0884 15.1818 31.2786C10.7922 31.1966 6.94292 28.3787 5.59821 24.265C7.13589 24.557 8.72029 24.497 10.2295 24.091C5.44384 23.1391 2.00081 18.9993 2.00081 14.1916C2.00081 14.1476 2.00081 14.1056 2.00081 14.0636C3.42677 14.8456 5.02336 15.2796 6.65651 15.3276C2.1491 12.3617 0.759699 6.45812 3.48162 1.84241C8.68982 8.15201 16.3742 11.9878 24.6232 12.3937C23.7965 8.88596 24.9259 5.2102 27.5909 2.74435C31.7225 -1.07941 38.2206 -0.883419 42.1044 3.18232C44.4018 2.73635 46.6037 1.9064 48.6187 0.730479C47.8529 3.06833 46.2503 5.05421 44.1093 6.31613C46.1426 6.08014 48.1292 5.54417 50 4.72623C48.6228 6.7581 46.8881 8.52799 44.8812 9.9579Z" fill="#1D9BF0"/>
</svg>
